PathFileType	4	(X/Y/Z)	C:\Users\Willi\Documents\Github\OpenSimMatlabBasic\ExampleData\Trials\dynamic03\marker_experimental.trc
DataRate	CameraRate	NumFrames	NumMarkers	Units	OrigDataRate	OrigDataStartFrame	OrigNumFrames
150.000000	150.000000	2	179	mm	150.000000	165	189
Frame#	Time	LFHD			LBHD			RFHD			RBHD			C7			T10			CLAV			STRN			RBAK			LSHO			LUPA			LELB			LFRA			LWRB			LWRA			LFIN			RSHO			RUPA			RELB			RFRA			RWRB			RWRA			RFIN			SACR			LASI			RASI			LT1			LT2			LT3			LS1			LS2			LS3			LTOE			RT1			RT2			RT3			RS1			RS2			RS3			RHEE			RTOE			SACO			SACA			SACL			SACP			LHEE			RM5D			LM5D			LKNE			RKNE			LANK			RANK			LKJC			RKJC			LAJC			RAJC			LTHI			RTHI			LTIB			RTIB			P_ForcePlate1			P_ForcePlate2			P_ForcePlate3			funktRKJC			funktLKJC			funktRHIP			funktLHIP			LHJC			RHJC			LKNEshank			RKNEshank			LKJCshank			RKJCshank			LHF			COP_FP1			VECTIP_FP1			RawCentreFP1			COP_FP2			VECTIP_FP2			RawCentreFP2			COP_FP3			VECTIP_FP3			RawCentreFP3			LPelvisAngles			RPelvisAngles			LFootProgressAngles			RFootProgressAngles			LHipAngles			RHipAngles			LKneeAngles			RKneeAngles			LAnkleAngles			RAnkleAngles			LFFootAngles			RFFootAngles			LAbsAnkleAngle			RAbsAnkleAngle			RNeckAngles			LNeckAngles			RSpineAngles			LSpineAngles			LShoulderAngles			LElbowAngles			LWristAngles			RShoulderAngles			RElbowAngles			RWristAngles			RThoraxAngles			LThoraxAngles			RHeadAngles			LHeadAngles			LHipPower			LKneePower			LAnklePower			RHipPower			RKneePower			RAnklePower			LWaistPower			RWaistPower			LNeckPower			RNeckPower			LShoulderPower			RShoulderPower			LElbowPower			RElbowPower			LWristPower			RWristPower			F_ForcePlate1			F_ForcePlate2			F_ForcePlate3			LHipForce			RHipForce			LKneeForce			RKneeForce			LAnkleForce			RAnkleForce			LNormalisedGRF			RNormalisedGRF			LGroundReactionForce			RGroundReactionForce			LGRF			RGRF			LWaistForce			RWaistForce			LNeckForce			RNeckForce			LShoulderForce			RShoulderForce			LElbowForce			RElbowForce			LWristForce			RWristForce			Force_FP1			RawForceFP1			Force_FP2			RawForceFP2			Force_FP3			RawForceFP3			LHipMoment			RHipMoment			LKneeMoment			RKneeMoment			LAnkleMoment			RAnkleMoment			LGroundReactionMoment			RGroundReactionMoment			LWaistMoment			RWaistMoment			LNeckMoment			RNeckMoment			LShoulderMoment			RShoulderMoment			LElbowMoment			RElbowMoment			LWristMoment			RWristMoment			RawMomentFP1			RawMomentFP2			RawMomentFP3			
		X1	Y1	Z1	X2	Y2	Z2	X3	Y3	Z3	X4	Y4	Z4	X5	Y5	Z5	X6	Y6	Z6	X7	Y7	Z7	X8	Y8	Z8	X9	Y9	Z9	X10	Y10	Z10	X11	Y11	Z11	X12	Y12	Z12	X13	Y13	Z13	X14	Y14	Z14	X15	Y15	Z15	X16	Y16	Z16	X17	Y17	Z17	X18	Y18	Z18	X19	Y19	Z19	X20	Y20	Z20	X21	Y21	Z21	X22	Y22	Z22	X23	Y23	Z23	X24	Y24	Z24	X25	Y25	Z25	X26	Y26	Z26	X27	Y27	Z27	X28	Y28	Z28	X29	Y29	Z29	X30	Y30	Z30	X31	Y31	Z31	X32	Y32	Z32	X33	Y33	Z33	X34	Y34	Z34	X35	Y35	Z35	X36	Y36	Z36	X37	Y37	Z37	X38	Y38	Z38	X39	Y39	Z39	X40	Y40	Z40	X41	Y41	Z41	X42	Y42	Z42	X43	Y43	Z43	X44	Y44	Z44	X45	Y45	Z45	X46	Y46	Z46	X47	Y47	Z47	X48	Y48	Z48	X49	Y49	Z49	X50	Y50	Z50	X51	Y51	Z51	X52	Y52	Z52	X53	Y53	Z53	X54	Y54	Z54	X55	Y55	Z55	X56	Y56	Z56	X57	Y57	Z57	X58	Y58	Z58	X59	Y59	Z59	X60	Y60	Z60	X61	Y61	Z61	X62	Y62	Z62	X63	Y63	Z63	X64	Y64	Z64	X65	Y65	Z65	X66	Y66	Z66	X67	Y67	Z67	X68	Y68	Z68	X69	Y69	Z69	X70	Y70	Z70	X71	Y71	Z71	X72	Y72	Z72	X73	Y73	Z73	X74	Y74	Z74	X75	Y75	Z75	X76	Y76	Z76	X77	Y77	Z77	X78	Y78	Z78	X79	Y79	Z79	X80	Y80	Z80	X81	Y81	Z81	X82	Y82	Z82	X83	Y83	Z83	X84	Y84	Z84	X85	Y85	Z85	X86	Y86	Z86	X87	Y87	Z87	X88	Y88	Z88	X89	Y89	Z89	X90	Y90	Z90	X91	Y91	Z91	X92	Y92	Z92	X93	Y93	Z93	X94	Y94	Z94	X95	Y95	Z95	X96	Y96	Z96	X97	Y97	Z97	X98	Y98	Z98	X99	Y99	Z99	X100	Y100	Z100	X101	Y101	Z101	X102	Y102	Z102	X103	Y103	Z103	X104	Y104	Z104	X105	Y105	Z105	X106	Y106	Z106	X107	Y107	Z107	X108	Y108	Z108	X109	Y109	Z109	X110	Y110	Z110	X111	Y111	Z111	X112	Y112	Z112	X113	Y113	Z113	X114	Y114	Z114	X115	Y115	Z115	X116	Y116	Z116	X117	Y117	Z117	X118	Y118	Z118	X119	Y119	Z119	X120	Y120	Z120	X121	Y121	Z121	X122	Y122	Z122	X123	Y123	Z123	X124	Y124	Z124	X125	Y125	Z125	X126	Y126	Z126	X127	Y127	Z127	X128	Y128	Z128	X129	Y129	Z129	X130	Y130	Z130	X131	Y131	Z131	X132	Y132	Z132	X133	Y133	Z133	X134	Y134	Z134	X135	Y135	Z135	X136	Y136	Z136	X137	Y137	Z137	X138	Y138	Z138	X139	Y139	Z139	X140	Y140	Z140	X141	Y141	Z141	X142	Y142	Z142	X143	Y143	Z143	X144	Y144	Z144	X145	Y145	Z145	X146	Y146	Z146	X147	Y147	Z147	X148	Y148	Z148	X149	Y149	Z149	X150	Y150	Z150	X151	Y151	Z151	X152	Y152	Z152	X153	Y153	Z153	X154	Y154	Z154	X155	Y155	Z155	X156	Y156	Z156	X157	Y157	Z157	X158	Y158	Z158	X159	Y159	Z159	X160	Y160	Z160	X161	Y161	Z161	X162	Y162	Z162	X163	Y163	Z163	X164	Y164	Z164	X165	Y165	Z165	X166	Y166	Z166	X167	Y167	Z167	X168	Y168	Z168	X169	Y169	Z169	X170	Y170	Z170	X171	Y171	Z171	X172	Y172	Z172	X173	Y173	Z173	X174	Y174	Z174	X175	Y175	Z175	X176	Y176	Z176	X177	Y177	Z177	X178	Y178	Z178	X179	Y179	Z179	

166	1.1	671.6400146484375	1212.39501953125	-319.8824768066406	562.3851318359375	1247.7802734375	-382.5797119140624	641.8701171875	1221.28125	-210.1214599609374	513.7498168945312	1272.929931640625	-223.8345794677734	445.0210266113281	1118.700561523438	-301.1264953613281	406.5621948242188	967.9165649414062	-297.0554809570312	553.9180297851562	1064.209228515625	-301.1689147949218	578.7351684570312	1010.353454589844	-303.8716735839843	407.1708374023438	1041.979248046875	-218.0970001220703	493.0934448242188	1084.078002929688	-438.2384643554687	493.7839660644531	896.6179809570312	-513.1687622070312	512.9426879882812	835.9734497070312	-536.396240234375	549.8028564453125	771.6001586914062	-557.2603149414062	627.8461303710938	669.2044067382812	-568.560546875	684.0480346679688	706.4758911132812	-544.2675170898438	711.9996948242188	662.1742553710938	-580.1060791015625	478.2565307617188	1090.6611328125	-167.5477447509765	446.3130187988281	986.5484619140625	-122.6941680908203	415.5027770996094	835.790771484375	-100.2177505493163	415.0850830078125	683.3062744140625	-95.66307830810543	420.0274047851562	637.1027221679688	-90.12865447998043	490.6681823730469	649.7671508789062	-85.02963256835933	491.14453125	596.802734375	-47.38789367675778	417.6407775878906	765.3161010742188	-287.1718444824218	543.1328125	732.0609741210938	-408.1252746582031	559.0655517578125	726.6370239257812	-180.2655792236328	478.5079956054688	537.6265869140625	-431.2246398925781	401.6098327636719	442.6962890625	-411.7242431640625	467.1775817871094	437.9009704589844	-412.5706481933594	336.835205078125	230.6570892333985	-410.9514770507812	220.5247344970703	193.4258880615235	-396.14501953125	352.6756896972656	135.8828887939453	-391.6999816894531	360.9931640625	48.24525070190432	-353.3229064941406	584.1390380859375	526.8848876953125	-150.69970703125	578.9540405273438	411.0376892089844	-168.2744140625	625.0253295898438	433.6296691894531	-167.1395416259765	666.1727294921875	230.1876678466797	-155.8807373046875	630.7913818359375	113.0637817382813	-178.1826477050781	754.15087890625	185.4982604980469	-163.8722381591797	722.4613037109375	38.66412353515626	-236.6743774414062	861.7166137695312	99.91326904296876	-198.0070343017578	452.8958740234375	755.8033447265625	-286.6990051269531	457.8060302734375	754.4805908203125	-287.0738220214843	452.540283203125	755.9243774414062	-291.7841491699218	466.1763610839844	805.0328979492188	-286.4558715820312	214.6783294677734	79.53696441650392	-329.2046508789062	851.3508911132812	74.56512451171876	-171.3510131835938	343.5625305175781	25.11621856689456	-386.6416015625	428.9315185546875	379.9968872070312	-398.4840087890625	633.4044189453125	377.2239685058594	-178.7293853759765	251.8097534179688	73.52810668945315	-371.2404479980469	740.919677734375	70.84689331054689	-186.0386352539062	426.2445983886719	378.1377258300781	-346.3410339355469	627.8635864257812	371.6120300292969	-230.9043884277343	267.7856140136719	78.30994415283205	-335.5568542480469	756.6349487304688	86.3222122192383	-218.7776489257812	467.5359191894531	524.0562133789062	-435.2120971679687	578.7745361328125	527.2947998046875	-141.4745788574218	312.3254699707031	226.0647277832032	-430.315185546875	654.0167236328125	199.3855743408203	-150.6816711425781	-256.7200012207031	0.07899999618532701	-396.4200134277344	370.1590881347656	2.089723275620005e-14	-341.2777099609375	950.1600341796875	1.404999971389795	-394.6300048828125	0	0	0	0	0	0	0	0	0	0	0	0	501.2041320800781	670.0977172851562	-343.3776855468749	507.7169494628906	667.154052734375	-241.6482238769531	432.8340759277344	377.2420959472656	-393.4183654785156	622.1090698242188	392.7549438476562	-176.1423034667968	427.1739501953125	377.4858703613281	-341.481201171875	627.4674682617188	388.948486328125	-228.4982604980468	2.051653385162354	-9.790157318115234	-0.4885041415691382	-256.7200012207031	0.07899999618532701	-396.4200134277344	-256.7201232910156	-0.2513438165187593	-396.4246215820312	-256.7200012207031	0.07899999618532701	-396.4200134277344	370.1590881347656	2.089723275620005e-14	-341.2777099609375	418.4525451660156	425.4158020019531	-323.0943298339844	254.2699890136719	-0.2560999989509441	-231.3000030517578	950.1600341796875	1.404999971389795	-394.6300048828125	950.1600341796875	1.404999971389795	-394.6300048828125	254.2699890136719	-0.2560999989509441	-231.3000030517578	15.0967845916748	-4.215597629547119	-0.273343235254288	15.0967845916748	4.215597629547119	0.273343235254288	12.49356842041016	-8.318599700927734	-0.9393292069435125	-15.13548755645752	-8.726237297058105	-0.4228464365005499	0.7167389988899231	6.561370849609375	0.2378939688205723	37.02497482299805	4.694316864013672	4.691564559936523	13.35634422302246	-20.41655731201172	-2.914076805114747	-2.10766863822937	-40.51041793823242	0.5862957239150977	15.69560432434082	9.761320114135742	2.196191549301148	-10.25990676879883	23.7237720489502	-3.766926050186156	3.18055471858951e-15	3.975693398236888e-16	-9.939233892638914e-16	-3.18055471858951e-15	1.590277359294755e-15	5.864147583728397e-15	21.07817840576172	0	0	-4.758546352386475	0	0	15.7884693145752	17.27845191955566	5.268018245697022	15.7884693145752	-17.27845191955566	-5.268018245697022	-11.26495552062988	2.929179668426514	0.9195386767387392	-11.26495552062988	-2.929179668426514	-0.9195386767387392	5.036135196685791	0.9598701596260083	-19.55932998657227	45.72930526733398	3.434999138428318e-13	2.385416091881713e-15	12.1359395980835	100.0186233520508	-4.317404747009271	-17.59499549865723	-3.561911106109619	-9.600000381469727	36.95300674438477	1.326688867271664e-12	6.460501871397429e-16	19.01048851013184	92.77235412597656	-16.35168457031249	3.813807725906372	1.387864351272583	-0.3822351098060607	3.813807725906372	-1.387864351272583	0.3822351098060607	-20.42768287658691	-16.81848526000977	-0.966578483581544	-20.42768287658691	16.81848526000977	0.966578483581544	0	-0.6873571872711182	-4.208848896312514e-17	0	-0.1097446158528328	-6.719919626391378e-18	0	0.5607402324676514	3.43354365422326e-17	0	-0.03585108742117882	-2.195245972814929e-18	0	0.03074448555707932	1.882556791445461e-18	0	0.004077798686921597	2.496931554752907e-19	0	-0.3442566692829132	-2.107964140612243e-17	0	-0.3442566692829132	-2.107964140612243e-17	0	-0.07825706899166107	-4.791863452564566e-18	0	-0.07825706899166107	-4.791863452564566e-18	0	0.007509916555136442	4.59849763555578e-19	0	0.003296448849141598	2.018492765827117e-19	0	0.01123264525085688	6.878011526209796e-19	0	-0.00580453360453248	-3.554251749666975e-19	0	0.0006783020216971636	4.153401998633049e-20	0	-0.0007904067169874907	-4.839845279916492e-20	-256.7201232910156	-0.2513438165187593	-396.4246215820312	418.4525451660156	425.4158020019531	-323.0943298339844	950.1600341796875	1.404999971389795	-394.6300048828125	2.051653146743774	-9.790156364440918	-0.4885041415691382	0.4390667080879211	1.898468255996704	0.2586710155010224	4.366536617279053	-10.16632175445557	0.503806293010711	-0.2872827649116516	0.7246544361114502	0.2317819446325303	11.55301666259766	1.29298198223114	-0.1445672810077666	-0.08019347488880157	-0.3401210010051727	0.0498145669698715	13.03669166564941	119.3261871337891	-5.135381221771233	0	0	0	1.278899431228638	11.70589923858643	0.503780901432038	0	0	0	1.278899431228638	11.70589923858643	0.503780901432038	0	0	0	1.383295297622681	-6.253040790557861	-0.1780604124069218	1.383295297622681	-6.253040790557861	-0.1780604124069218	0.2842292189598083	-0.8062419891357422	-0.1992061287164689	0.2842292189598083	-0.8062419891357422	-0.1992061287164689	0.1597567200660706	0.5939416885375977	0.1174523383378983	0.1402292102575302	0.5383033752441406	-0.1409665644168853	-0.09077788889408112	0.2644323110580444	0.03577804192900659	-0.1059891432523727	0.2207241207361221	-0.07050248235464095	0.0201999768614769	0.06651485711336136	0.02846743538975716	0.03860153630375862	0.03926120325922966	-0.04566016420722008	-256.7201232910156	-0.2513438165187593	-396.4246215820312	-0.0001322387397522107	-0.3303438127040863	-0.004620724823325892	418.4525451660156	425.4158020019531	-323.0943298339844	48.29345321655273	425.4158020019531	18.18337440490725	950.1600341796875	1.404999971389795	-394.6300048828125	48.29345321655273	425.4158020019531	18.18337440490725	-727.989013671875	20.93006896972659	-438.6963195800781	148.1907043457031	2.769116640090944	-23.30580520629883	215.2870178222656	74.06607818603517	-198.7496337890625	-126.4496002197266	1.234568119049078	-91.88400268554688	1289.706298828125	19.66079711914064	-152.8601531982422	7.162481784820557	4.161495208740234	-1.851081490516662	1286.957641601562	-195.6118774414063	1359.892333984375	nan	nan	nan	-719.1416015625	151.6627960205078	182.927978515625	-719.1416015625	-151.6627960205078	-182.927978515625	-437.2124328613281	49.59529876708984	53.05694580078125	-437.2124328613281	-49.59529876708984	-53.05694580078125	33.03680419921875	-3.665915012359618	-15.88733673095703	1.367893815040588	-7.418002128601072	-32.62036895751953	-9.104783058166504	-0.06156636029481857	-5.05961799621582	-15.94191741943359	-0.06599129736423417	-12.2517614364624	1.04778790473938	1.553878859792523e-15	-1.301573276519775	2.29153847694397	-2.45223296019108e-15	-2.308354139328003	7.805319786071777	0.6023484468460092	-15.10709571838379	46786.2578125	-6990.729492187503	49301.05078125	46786.2578125	-6990.729492187503	49301.05078125	
167	1.106666666666667	679.4268798828125	1212.319946289062	-318.9115295410156	569.9539794921875	1247.25439453125	-381.4623107910156	649.7352905273438	1221.019287109375	-209.1271362304687	521.3819580078125	1272.086303710938	-222.6569824218749	453.5265502929688	1117.590576171875	-300.3238830566406	415.5049438476562	966.8394165039062	-296.6125183105468	562.6261596679688	1063.328369140625	-299.9123535156249	587.5899047851562	1009.535583496094	-302.4819030761718	415.4925537109375	1040.66162109375	-217.6488952636718	502.2091979980469	1083.093627929688	-437.2620544433593	502.8558654785156	895.4522705078125	-511.6899719238281	522.1787719726562	834.773193359375	-534.9389038085938	559.7728271484375	770.6221313476562	-555.576416015625	639.0252075195312	669.0750732421875	-566.4848022460938	694.6691284179688	706.8887939453125	-541.68896484375	723.446044921875	662.98291015625	-577.2850341796875	486.1737670898438	1089.393432617188	-166.6264495849609	454.0750122070312	985.2481689453125	-122.093391418457	423.1453857421875	834.5499267578125	-99.71387481689447	422.0841369628906	682.1168823242188	-95.27820587158199	426.7852172851562	635.9092407226562	-89.7381210327148	497.4415283203125	648.2182006835938	-84.32636260986324	497.5097351074219	595.1723022460938	-46.78015136718746	426.85009765625	764.2991943359375	-286.6526794433593	552.5062866210938	730.7823486328125	-407.4210205078124	568.1779174804688	725.753173828125	-179.5480499267578	486.5792846679688	536.7232666015625	-430.6993713378906	408.8767700195312	442.2919616699219	-411.4120788574219	474.4608764648438	437.0362854003906	-412.1894226074219	340.7251586914062	231.6083374023438	-411.1211547851562	223.7464141845703	196.469467163086	-396.3905334472656	354.7866516113281	136.4489440917969	-392.290771484375	361.6384582519531	48.32073211669924	-353.7433166503906	593.6104736328125	526.1510009765625	-150.5004425048828	588.3273315429688	410.392578125	-168.6056823730468	634.41748046875	432.8965148925781	-167.3695220947265	674.5531005859375	229.0863037109375	-157.1601867675781	638.086181640625	112.1241607666016	-180.4920501708984	762.1102905273438	183.8495483398438	-165.1451568603516	729.251708984375	37.78208541870119	-238.6849670410156	868.6683349609375	97.12771606445314	-199.7538452148438	462.1387634277344	754.7661743164062	-286.1459350585937	467.0489196777344	753.4412841796875	-286.5128784179687	461.7890014648438	754.87841796875	-291.2316589355468	475.4341430664062	803.9920654296875	-285.9738769531249	215.8772277832031	82.52410125732423	-329.9457702636719	858.0863037109375	71.79486083984376	-173.2573089599609	343.6892395019531	25.07526779174807	-386.7310791015625	435.7467956542969	379.4368591308594	-398.2349853515625	642.7447509765625	376.5759887695312	-179.2104034423828	252.8150329589844	75.915885925293	-372.0380859375	747.7894897460938	69.22167205810548	-188.2376403808594	432.9775390625	377.5288391113281	-346.0980834960938	637.2041015625	371.2079467773438	-231.4110717773437	268.9001159667969	80.24251556396486	-336.3454895019531	763.7644653320312	84.77349853515626	-220.8143615722656	475.6592407226562	523.2715454101562	-434.7438964843749	587.9923095703125	526.1988525390625	-141.4578857421875	316.0905151367188	227.7174072265625	-430.6669006347656	661.7367553710938	198.1779327392578	-152.2843170166016	-256.7200012207031	0.07899999618532701	-396.4200134277344	371.6043701171875	2.091697144049477e-14	-341.6000671386719	950.1600341796875	1.404999971389795	-394.6300048828125	0	0	0	0	0	0	0	0	0	0	0	0	510.4840393066406	668.9461059570312	-342.6194152832031	516.8805541992188	666.1787719726562	-240.8776550292968	439.4473876953125	376.3026428222656	-393.0148620605469	632.192138671875	392.2315063476562	-176.3812408447265	433.826171875	376.4232482910156	-341.072998046875	637.6795654296875	388.7489624023438	-228.7463836669922	2.130185604095459	-9.726523399353027	-0.4864254295825964	-256.7200012207031	0.07899999618532701	-396.4200134277344	-256.7201232910156	-0.2513438165187593	-396.4246215820312	-256.7200012207031	0.07899999618532701	-396.4200134277344	371.6043701171875	2.091697144049477e-14	-341.6000671386719	421.9923095703125	424.2523803710938	-323.1548461914062	254.2699890136719	-0.2560999989509441	-231.3000030517578	950.1600341796875	1.404999971389795	-394.6300048828125	950.1600341796875	1.404999971389795	-394.6300048828125	254.2699890136719	-0.2560999989509441	-231.3000030517578	15.11456298828125	-4.126669883728027	-0.19330969452858	15.11456298828125	4.126669883728027	0.19330969452858	13.61763477325439	-8.085253715515137	-1.039774894714356	-14.50282287597656	-8.960507392883301	-0.06971593201160486	0.2538034915924072	6.525510311126709	0.4505325257778172	37.13127517700195	4.625064373016357	4.352702617645264	13.90194129943848	-20.58971214294434	-2.86516571044922	-1.598498463630676	-40.75026702880859	0.4578035771846746	15.6034631729126	10.10678100585938	2.278064489364624	-10.41446113586426	23.78975105285645	-3.835981607437132	6.361109437179021e-15	-3.975693398236885e-16	-4.770832183763384e-15	0	-3.975693398236886e-16	-2.683593076897124e-15	20.95208740234375	0	0	-4.903751373291016	0	0	15.68557739257812	16.93728065490723	5.274147987365724	15.68557739257812	-16.93728065490723	-5.274147987365724	-11.45057678222656	3.107948064804077	0.725432872772217	-11.45057678222656	-3.107948064804077	-0.725432872772217	4.841345310211182	0.7096034288406384	-19.35994720458984	46.22237396240234	-7.473309623050317e-13	2.087239106866214e-15	12.42347431182861	100.3759307861328	-4.148622989654535	-17.81296157836914	-3.410269498825073	-9.6553955078125	36.80974197387695	-2.134947383811148e-12	2.13693516515625e-15	18.91462516784668	92.71609497070312	-16.30535888671874	3.652742862701416	1.104086875915527	-0.3191862404346466	3.652742862701416	-1.104086875915527	0.3191862404346466	-20.16892433166504	-16.74552536010742	-0.957865834236146	-20.16892433166504	16.74552536010742	0.957865834236146	0	-0.5624698996543884	-3.444134811142399e-17	0	-0.2282629758119583	-1.397707613459822e-17	0	0.9219852685928345	5.645531540216138e-17	0	-0.0766252875328064	-4.691945655539847e-18	0	0.127417728304863	7.802085656158877e-18	0	0.004263568669557571	2.610682862059309e-19	0	-0.3854570090770721	-2.360243461875743e-17	0	-0.3854570090770721	-2.360243461875743e-17	0	-0.06576158106327057	-4.026735487800175e-18	0	-0.06576158106327057	-4.026735487800175e-18	0	0.01268972922116518	7.770218136373287e-19	0	0.004886212758719921	2.991942407459655e-19	0	0.01133116986602545	6.938340453511504e-19	0	-0.006121080368757248	-3.748080740461132e-19	0	0.0007161691901274025	4.385271531687379e-20	0	-0.0009775134967640042	-5.985543874676872e-20	-256.7201232910156	-0.2513438165187593	-396.4246215820312	421.9923095703125	424.2524108886719	-323.1548461914062	950.1600341796875	1.404999971389795	-394.6300048828125	2.13018536567688	-9.726523399353027	-0.486425399780274	0.4377462267875671	1.933043479919434	0.2985107302665712	4.503567218780518	-10.06191635131836	0.5942620038986199	-0.2270966172218323	0.7291509509086609	0.2375132739543915	11.50475025177002	1.459295988082886	-0.110581986606121	-0.08767635375261307	-0.3031439483165741	0.05695597827434538	14.14239978790283	118.8899230957031	-5.234280586242669	0	0	0	1.387369394302368	11.66310119628906	0.5134829282760627	0	0	0	1.387369394302368	11.66310119628906	0.5134829282760627	0	0	0	1.261774301528931	-6.094584465026855	-0.1359375119209293	1.261774301528931	-6.094584465026855	-0.1359375119209293	0.1190165728330612	-0.522761344909668	-0.1733886450529099	0.1190165728330612	-0.522761344909668	-0.1733886450529099	0.1625227630138397	0.5965821743011475	0.1292388290166855	0.1462022066116333	0.5508580803871155	-0.1380373686552047	-0.09096265584230423	0.2643510699272156	0.04079631716012956	-0.107530489563942	0.2269077599048615	-0.06991149485111235	0.02058642357587814	0.06637106835842133	0.02762392908334732	0.03918272629380226	0.04069313034415245	-0.04670340567827225	-256.7201232910156	-0.2513438165187593	-396.4246215820312	-0.0001322387397522107	-0.3303438127040863	-0.004620724823325892	421.9923095703125	424.2524108886719	-323.1548461914062	50.38791656494141	424.2524108886719	18.44522857666018	950.1600341796875	1.404999971389795	-394.6300048828125	50.38791656494141	424.2524108886719	18.44522857666018	-796.8638305664062	24.89569091796877	-434.0512390136719	125.94482421875	1.333258748054508	-50.36214828491211	253.8347473144531	77.29623413085939	-178.543701171875	-104.8538589477539	0.7550013661384638	-90.44482421875	1297.4580078125	22.82689857482911	-153.6094818115234	5.582908630371094	4.328161239624023	-2.198065996170044	1282.8994140625	-204.3854980468751	1368.4462890625	nan	nan	nan	-812.08056640625	178.9151153564453	227.4118041992188	-812.08056640625	-178.9151153564453	-227.4118041992188	-507.7199401855469	72.71165466308594	114.8809204101562	-507.7199401855469	-72.71165466308594	-114.8809204101562	33.8080940246582	-3.940253019332884	-18.31015586853027	1.813121318817139	-7.444233417510985	-32.33334732055664	-8.693316459655762	-0.07353533804416623	-5.386721134185791	-16.27550506591797	-0.06337633728980943	-12.33976936340332	1.036853194236755	-9.403493272198999e-16	-1.225843667984009	2.337683916091919	-1.127425770247021e-15	-2.366330623626709	7.805319786071777	0.6023484468460092	-15.10709571838379	46795.06640625	-7452.686523437503	49779.3984375	46795.06640625	-7452.686523437503	49779.3984375	
